<?xml version="1.0" encoding="iso-8859-1"?>
<!-- Generator: Adobe Illustrator 16.0.0, SVG Export Plug-In . SVG Version: 6.00 Build 0)  -->
<!DOCTYPE svg PUBLIC "-//W3C//DTD SVG 1.1//EN" "http://www.w3.org/Graphics/SVG/1.1/DTD/svg11.dtd">
<svg version="1.1" id="Capa_1" xmlns="http://www.w3.org/2000/svg" xmlns:xlink="http://www.w3.org/1999/xlink" x="0px" y="0px"
	 width="901.359px" height="901.359px" viewBox="0 0 901.359 901.359" style="enable-background:new 0 0 901.359 901.359;"
	 xml:space="preserve">
<g>
	<g>
		<path d="M675.973,676.02c-62.223,0-112.67,50.447-112.67,112.67s50.447,112.67,112.67,112.67s112.67-50.447,112.67-112.67
			S738.193,676.02,675.973,676.02z"/>
		<path d="M394.298,676.02c-62.221,0-112.669,50.447-112.669,112.67s50.448,112.67,112.669,112.67
			c62.223,0,112.67-50.447,112.67-112.67S456.521,676.02,394.298,676.02z"/>
		<path d="M890.807,192.386c-10.729-14.718-27.674-23.382-45.826-23.382H265.895L222.377,38.482C214.73,15.486,193.22,0,168.959,0
			H56.343C25.204,0,0.01,25.169,0.01,56.335c0,31.165,25.195,56.335,56.333,56.335h72.015l156.13,468.503
			c7.704,22.996,29.214,38.514,53.475,38.514h394.348c24.371,0,45.77-15.518,53.475-38.514l112.67-338.037
			C904.174,225.973,901.314,207.102,890.807,192.386z"/>
	</g>
</g>
<g>
</g>
<g>
</g>
<g>
</g>
<g>
</g>
<g>
</g>
<g>
</g>
<g>
</g>
<g>
</g>
<g>
</g>
<g>
</g>
<g>
</g>
<g>
</g>
<g>
</g>
<g>
</g>
<g>
</g>
</svg>
